<?xml version="1.0" encoding="UTF-8"?>
<svg xmlns="http://www.w3.org/2000/svg" xmlns:xlink="http://www.w3.org/1999/xlink" width="30pt" height="61pt" viewBox="0 0 50 81" version="1.1">
<g id="surface1">
<path style="fill-rule:evenodd;fill:rgb(0%,49.803922%,100%);fill-opacity:1;stroke-width:30;stroke-linecap:butt;stroke-linejoin:miter;stroke:rgb(0%,0%,0%);stroke-opacity:1;stroke-miterlimit:10;" d="M 554.039062 1729.861111 C 515.28125 1539.583333 446.875 1381.25 364.117188 1234.461806 C 302.671875 1125.520833 231.601562 1025.086806 165.773438 919.53125 C 143.773438 884.288194 124.78125 847.048611 103.726562 810.416667 C 61.445312 737.326389 27.242188 652.517361 29.390625 542.534722 C 31.539062 435.069444 62.648438 348.784722 107.421875 278.298611 C 181.15625 162.413194 304.648438 67.361111 470.335938 42.361111 C 605.773438 21.961806 732.789062 56.423611 822.851562 109.114583 C 896.5 152.170139 953.476562 209.635417 996.789062 277.430556 C 1041.992188 348.090278 1073.1875 431.684028 1075.765625 540.625 C 1077.140625 596.440972 1067.945312 648.177083 1055.054688 691.059028 C 1042.078125 734.461806 1021.109375 770.746528 1002.460938 809.461806 C 966.023438 885.15625 920.390625 954.513889 874.585938 1023.871528 C 738.117188 1230.46875 610.070312 1441.145833 554.039062 1729.861111 Z M 554.039062 1729.861111 " transform="matrix(0.0454545,0,0,0.045,0,0)"/>
<path style=" stroke:none;fill-rule:evenodd;fill:rgb(0%,0%,0%);fill-opacity:1;" d="M 33.441406 23.808594 C 33.441406 28.363281 29.710938 32.058594 25.109375 32.058594 C 20.503906 32.058594 16.773438 28.363281 16.773438 23.808594 C 16.773438 19.25 20.503906 15.558594 25.109375 15.558594 C 29.710938 15.558594 33.441406 19.25 33.441406 23.808594 Z M 33.441406 23.808594 "/>
</g>
</svg>
